
<svg xmlns="http://www.w3.org/2000/svg" xmlns:xlink="http://www.w3.org/1999/xlink" viewBox="0 0 20 28" width="20" height="28" fill="none">
  <svg xmlns="http://www.w3.org/2000/svg" viewBox="0 0 512 512" width="20" height="20" fill="#030303" x="0" y="4" opacity="100%">
    <path d="M496 96h-64l-7.16-14.31A32 32 0 0 0 396.22 64H342.6l-27.28-27.28C305.23 26.64 288 33.78 288 48.03v149.84l128 45.71V208h32c35.35 0 64-28.65 64-64v-32c0-8.84-7.16-16-16-16zm-112 48c-8.84 0-16-7.16-16-16s7.16-16 16-16 16 7.16 16 16-7.16 16-16 16zM96 224c-17.64 0-32-14.36-32-32 0-17.67-14.33-32-32-32S0 174.33 0 192c0 41.66 26.83 76.85 64 90.1V496c0 8.84 7.16 16 16 16h64c8.84 0 16-7.16 16-16V384h160v112c0 8.84 7.16 16 16 16h64c8.84 0 16-7.16 16-16V277.55L266.05 224H96z"></path>
  </svg>
  <defs>
    <filter id="filter_dshadow_0_0_0_00000014" color-interpolation-filters="sRGB" filterUnits="userSpaceOnUse">
      <feFlood flood-opacity="0" result="bg-fix"></feFlood>
      <feColorMatrix in="SourceAlpha" type="matrix" values="0 0 0 0 0 0 0 0 0 0 0 0 0 0 0 0 0 0 127 0" result="alpha"></feColorMatrix>
      <feOffset dx="0" dy="0"></feOffset>
      <feGaussianBlur stdDeviation="0"></feGaussianBlur>
      <feComposite in2="alpha" operator="out"></feComposite>
      <feColorMatrix type="matrix" values="0 0 0 0 0 0 0 0 0 0 0 0 0 0 0 0 0 0 0.08 0"></feColorMatrix>
      <feBlend mode="normal" in2="bg-fix" result="bg-fix-filter_dshadow_0_0_0_00000014"></feBlend>
      <feBlend in="SourceGraphic" in2="bg-fix-filter_dshadow_0_0_0_00000014" result="shape"></feBlend>
    </filter>
  </defs>
</svg>